<?xml version="1.0" standalone="no"?>
<!DOCTYPE svg PUBLIC "-//W3C//DTD SVG 20010904//EN"
 "http://www.w3.org/TR/2001/REC-SVG-20010904/DTD/svg10.dtd">
<svg version="1.0" xmlns="http://www.w3.org/2000/svg"
 width="300.000000pt" height="300.000000pt" viewBox="0 0 300.000000 300.000000"
 preserveAspectRatio="xMidYMid meet">
<metadata>
Created by potrace 1.14, written by Peter Selinger 2001-2017
</metadata>
<g transform="translate(0.000000,300.000000) scale(0.100000,-0.100000)"
fill="#000000" stroke="none">
<path d="M1478 2954 c-2 -1 -32 -4 -68 -7 -123 -10 -250 -47 -365 -104 -141
-72 -285 -190 -375 -308 -34 -45 -100 -163 -100 -179 0 -3 16 0 35 8 19 8 35
14 35 13 0 -1 -9 -27 -21 -57 -39 -103 -53 -264 -35 -403 6 -49 10 -56 22 -46
8 6 14 17 14 25 0 7 15 40 33 74 l32 62 7 -119 c3 -65 9 -139 12 -165 l7 -47
-50 -15 c-73 -22 -89 -32 -113 -79 -29 -57 -28 -175 2 -284 24 -88 49 -135
115 -217 37 -45 55 -58 90 -67 44 -11 44 -12 55 -68 28 -145 58 -206 159 -320
l59 -66 -24 -28 c-13 -16 -24 -32 -24 -37 0 -4 21 -20 46 -35 25 -15 43 -29
40 -32 -4 -5 -79 -25 -141 -38 -11 -3 -47 -11 -80 -19 -33 -8 -112 -27 -175
-41 -63 -15 -121 -30 -129 -35 -10 -5 8 -20 60 -50 289 -169 620 -254 954
-245 189 6 340 31 514 87 156 50 429 186 416 208 -3 5 -22 12 -43 16 -42 7
-182 41 -227 54 -25 8 -96 26 -175 45 -66 15 -70 17 -60 30 6 7 26 21 45 30
42 19 44 33 10 65 -14 13 -25 27 -25 30 0 4 29 40 64 80 79 90 110 150 135
263 11 49 21 90 23 91 2 2 23 9 48 17 37 12 54 26 97 84 29 39 62 89 73 113
52 109 67 286 32 366 -22 49 -52 70 -120 81 l-43 7 8 86 c23 249 -13 510 -88
636 -15 26 -16 39 -8 74 26 115 -28 230 -130 278 -20 10 -56 34 -81 54 -86 71
-183 107 -340 126 -51 6 -199 12 -202 8z"/>
</g>
</svg>
